<svg xmlns="http://www.w3.org/2000/svg" version="1.1" xmlns:xlink="http://www.w3.org/1999/xlink" xmlns:svgjs="http://svgjs.com/svgjs" width="24" height="24"><svg width="24" height="24" viewBox="0 0 24 24" fill="none" xmlns="http://www.w3.org/2000/svg">
<path d="M20.8742 4.24679C20.7485 4.08226 20.4969 4 20.1196 4H16.9817L13.8374 19.1774C13.7955 19.3419 13.8374 19.5476 13.9213 19.7121C14.047 19.8766 14.2986 19.9589 14.6759 19.9589H17.8557L21 4.78149C21 4.61697 20.9581 4.41131 20.8742 4.24679Z" fill="#009FE3"></path>
<path d="M13.7893 4.24679C13.6635 4.08226 13.4119 4 13.0346 4H10.7771L7.63284 19.2185C7.59092 19.383 7.63284 19.5887 7.71669 19.7532C7.84246 19.9177 8.09401 20 8.47132 20H10.7288L13.8731 4.82262C13.915 4.61697 13.8731 4.41131 13.7893 4.24679Z" fill="#009FE3"></path>
<path d="M6.99748 4H6.20093L3.01472 19.2185C3.01472 19.2185 2.84703 20 3.64358 20H4.44013L7.62633 4.78149C7.62633 4.78149 7.83595 4 6.99748 4Z" fill="#009FE3"></path>
</svg><style>@media (prefers-color-scheme: light) { :root { filter: none; } }
</style></svg>