<svg xmlns="http://www.w3.org/2000/svg" version="1.1" xmlns:xlink="http://www.w3.org/1999/xlink" xmlns:svgjs="http://svgjs.com/svgjs" width="24" height="24"><svg width="24" height="24" viewBox="0 0 24 24" fill="none" xmlns="http://www.w3.org/2000/svg">
<path d="M22 10.5907H19.5103V16.8014H22V10.5907Z" fill="#EE3124"></path>
<path d="M22 9.79434V7.21279H15.9263V7.37589C15.9263 7.43748 15.917 7.50602 15.8988 7.58153L14.8455 14.1348C14.8089 14.3524 14.6995 14.461 14.5172 14.461C14.4351 14.461 14.3667 14.4396 14.312 14.3972C14.2572 14.3545 14.2162 14.2766 14.1889 14.1631L12.8071 8.94327C12.6338 8.29077 12.3558 7.80389 11.9727 7.48224C11.5897 7.16088 11.0288 7 10.2901 7C9.5422 7 8.96756 7.1631 8.56643 7.48939C8.16493 7.81559 7.86871 8.32403 7.67719 9.01423L6.26812 14.1631C6.2408 14.2766 6.19978 14.3545 6.14504 14.3972C6.09031 14.4396 6.02187 14.461 5.93982 14.461C5.7483 14.461 5.63884 14.3524 5.61152 14.1348L4.64022 7.58153C4.63109 7.5155 4.62419 7.44927 4.61971 7.38295C4.61505 7.31692 4.6129 7.26017 4.6129 7.21279H2C2 7.33577 2.01371 7.48717 2.04103 7.6667L3.19013 14.8581C3.23573 15.1609 3.32226 15.4446 3.45009 15.7092C3.57774 15.974 3.75107 16.201 3.96991 16.3901C4.18884 16.5793 4.4556 16.7283 4.7702 16.8369C5.0848 16.9455 5.45189 17 5.87148 17C6.58281 17 7.15737 16.8274 7.59514 16.4823C8.0329 16.1372 8.35198 15.5956 8.55273 14.8581L9.98911 9.56743C10.0346 9.37833 10.1348 9.28368 10.2901 9.28368C10.4451 9.28368 10.5453 9.37833 10.591 9.56743L11.918 14.8581C12.2827 16.2861 13.1536 17 14.5309 17C15.3607 17 15.9923 16.8036 16.4256 16.4114C16.8586 16.0191 17.13 15.506 17.2395 14.8724L18.1072 9.79434H22Z" fill="#EE3124"></path>
</svg><style>@media (prefers-color-scheme: light) { :root { filter: none; } }
</style></svg>